<svg width="630" height="654" viewBox="0 0 630 654" fill="none" xmlns="http://www.w3.org/2000/svg">
<circle cx="314.975" cy="333.986" r="298.398" fill="#072C37" stroke="#F2F2F2" stroke-width="33.1553"/>
<path d="M308.415 493.288C278.608 493.288 253.128 487.199 231.975 475.02C210.822 462.841 194.476 445.373 182.938 422.618C171.721 399.542 166.112 372.139 166.112 340.409C166.112 314.449 169.798 291.052 177.169 270.219C184.861 249.387 196.079 231.759 210.822 217.337C225.565 202.914 243.193 191.857 263.705 184.165C284.537 176.473 308.094 172.627 334.375 172.627C344.631 172.627 355.208 173.268 366.105 174.55C377.322 175.832 387.739 177.274 397.354 178.876C406.969 180.479 414.821 181.921 420.911 183.203C427 184.165 430.045 184.645 430.045 184.645L433.41 192.338C433.41 192.338 432.449 196.664 430.526 205.318C428.923 213.651 427 225.029 424.757 239.451C422.834 253.874 421.391 270.219 420.43 288.488L361.778 291.853C361.778 291.853 361.938 289.289 362.259 284.161C362.579 278.713 362.74 272.623 362.74 265.893C362.74 252.111 359.214 242.336 352.163 236.567C345.112 230.477 333.894 227.432 318.51 227.432C304.088 227.432 292.229 230.798 282.935 237.528C273.64 244.259 266.749 254.675 262.262 268.777C257.775 282.879 255.532 301.148 255.532 323.583C255.532 348.582 258.096 369.735 263.224 387.042C268.352 404.349 275.723 417.329 285.338 425.983C295.274 434.637 307.293 438.963 321.395 438.963C336.458 438.963 347.997 434.156 356.009 424.541C364.022 414.926 369.47 399.061 372.355 376.946L431.006 373.1C431.006 373.1 430.526 375.985 429.564 381.754C428.923 387.523 428.122 395.215 427.16 404.83C426.199 414.124 425.237 424.38 424.276 435.598C423.635 446.816 423.154 457.713 422.834 468.289L417.545 475.02C417.545 475.02 412.578 476.622 402.642 479.827C393.027 482.712 379.886 485.596 363.22 488.481C346.875 491.686 328.606 493.288 308.415 493.288Z" fill="#F2F2F2"/>
</svg>
