<svg width="25" height="35" viewBox="0 0 25 35" fill="none" xmlns="http://www.w3.org/2000/svg">
<g clip-path="url(#clip0_260_35559)">
<path d="M12.6848 33.5529C11.3432 33.5139 10.202 32.4239 10.1968 30.2734C10.1965 30.2141 10.1957 30.1547 10.1945 30.0954C10.6522 30.6977 11.6994 31.1086 12.916 31.0932C13.9632 31.079 14.88 30.7526 15.4012 30.2703C15.3964 30.3203 15.3925 30.3727 15.3887 30.4253C15.2383 32.5717 14.0255 33.5926 12.6848 33.5529Z" fill="#CBC8FF"/>
<path d="M13.3261 33.487C13.1162 33.5379 12.9004 33.56 12.6848 33.5528C11.3432 33.5138 10.202 32.4238 10.1968 30.2733C10.1965 30.214 10.1957 30.1546 10.1945 30.0953C10.4412 30.4191 10.8583 30.6882 11.3813 30.8648C11.6081 32.3673 12.3849 33.228 13.3261 33.487Z" fill="#B2B0F7"/>
<path d="M11.2297 33.1562C10.5755 32.6478 10.0787 31.7341 10.0752 30.2749L10.0751 30.2614C10.0747 30.2066 10.0741 30.152 10.073 30.0994C10.0724 30.0737 10.08 30.0485 10.0946 30.0273C10.1092 30.006 10.1302 29.99 10.1544 29.9814C10.1787 29.9728 10.205 29.9721 10.2296 29.9795C10.2542 29.9868 10.2758 30.0017 10.2913 30.0221C10.7405 30.6136 11.7706 30.9866 12.915 30.9722C13.8998 30.959 14.7984 30.6636 15.3189 30.1818C15.337 30.1651 15.3597 30.1542 15.384 30.1506C15.4083 30.1471 15.4331 30.1509 15.4551 30.1618C15.4771 30.1726 15.4953 30.1899 15.5073 30.2113C15.5192 30.2328 15.5244 30.2574 15.5221 30.2819C15.5178 30.3265 15.5143 30.3731 15.5108 30.4199L15.5096 30.4344C15.3382 32.8831 13.8785 33.7106 12.6805 33.675C12.1535 33.6602 11.6456 33.4787 11.2297 33.1562ZM10.3203 30.4111C10.3693 32.2113 11.2889 33.3915 12.6888 33.432C14.0915 33.4736 15.0902 32.3444 15.2571 30.5439C14.6817 30.956 13.8316 31.2032 12.9169 31.2156C11.857 31.229 10.8816 30.921 10.3203 30.4111Z" fill="#112C41"/>
<path d="M15.4012 30.2698C14.8801 30.7521 13.9633 31.0785 12.916 31.0926C11.6994 31.1081 10.6522 30.6972 10.1945 30.0948C10.195 30.0509 10.1938 30.0088 10.1927 29.9684C10.0739 24.6786 7.22579 22.7784 6.40082 19.8632C6.24792 19.3275 6.16185 18.7704 6.1864 18.1937C6.32626 14.9601 9.55018 12.4926 13.3936 12.6055C17.2362 12.7178 20.2871 15.3682 20.2073 18.6046C20.1931 19.1811 20.0694 19.7323 19.8812 20.2577C18.8627 23.1128 15.9018 24.8432 15.4162 30.0898C15.4106 30.1492 15.405 30.2087 15.4012 30.2698Z" fill="white"/>
<path d="M14.3882 30.8459C13.9563 30.9958 13.4535 31.0866 12.9157 31.0934C11.6991 31.1088 10.6519 30.6979 10.1942 30.0956C10.1947 30.0517 10.1935 30.0095 10.1924 29.9691C10.0736 24.6794 7.22547 22.7791 6.4005 19.8639C6.24759 19.3282 6.16152 18.7711 6.18608 18.1944C6.30567 15.4272 8.68356 13.2207 11.7762 12.7136C9.15301 13.4729 7.23252 15.5032 7.12514 17.9821C7.10049 18.5587 7.18665 19.1159 7.33956 19.6516C8.16453 22.5668 11.0127 24.4671 11.1314 29.7568C11.1326 29.7972 11.1338 29.8393 11.1333 29.8833C11.5909 30.4856 12.6382 30.8964 13.8548 30.8811C14.033 30.879 14.2111 30.8672 14.3882 30.8459Z" fill="#DEDFFE"/>
<path d="M10.445 30.5157C10.3092 30.4102 10.1923 30.2947 10.0978 30.1703C10.0815 30.1488 10.0729 30.1225 10.0731 30.0955C10.0736 30.0533 10.0724 30.013 10.0712 29.9742C9.99533 26.5968 8.7922 24.6067 7.73055 22.8509C7.13968 21.8738 6.58162 20.9508 6.28396 19.8985C6.11326 19.3004 6.04146 18.7418 6.06511 18.1908C6.13418 16.5938 6.93772 15.1233 8.32735 14.05C9.70568 12.9856 11.5065 12.4299 13.3979 12.4855C15.289 12.5407 17.0484 13.2013 18.3517 14.3433C19.6659 15.4958 20.3682 17.0104 20.3288 18.6085C20.3152 19.1587 20.2061 19.712 19.9954 20.2998C19.6272 21.3322 19.0079 22.2209 18.3522 23.1616C17.1779 24.8467 15.8468 26.7566 15.5372 30.1021C15.5317 30.1603 15.5262 30.2186 15.5225 30.2785C15.5206 30.3098 15.5066 30.3393 15.4835 30.3605C14.92 30.8822 13.9605 31.202 12.917 31.216C11.9316 31.2282 11.0193 30.9621 10.445 30.5157ZM10.316 30.0539C10.7777 30.6277 11.7912 30.9866 12.9151 30.9724C13.8778 30.9596 14.7582 30.6768 15.2834 30.2142C15.2869 30.169 15.2909 30.1248 15.2952 30.0804C15.6108 26.6709 16.9614 24.7328 18.1531 23.0229C18.7992 22.0959 19.4094 21.2203 19.7667 20.2186C19.9685 19.6554 20.0728 19.1273 20.0857 18.6034C20.1235 17.0788 19.4506 15.6309 18.1911 14.5267C16.9294 13.4205 15.2247 12.7821 13.3896 12.7287C11.5542 12.6747 9.80891 13.2123 8.47512 14.2424C7.14345 15.2707 6.37367 16.6762 6.3078 18.1999C6.2854 18.7244 6.35409 19.2578 6.51772 19.8307C6.80661 20.8519 7.3565 21.7613 7.93861 22.7241C9.01592 24.5059 10.237 26.5254 10.3141 29.9666C10.315 29.9946 10.3158 30.0238 10.316 30.0539Z" fill="#112C41"/>
<path d="M12.2216 29.6822C12.2079 29.6716 12.1967 29.6582 12.1886 29.6429C12.1806 29.6275 12.176 29.6106 12.1751 29.5933C12.0893 28.0629 11.3753 23.8749 10.2325 21.9412C9.64821 22.1443 9.09921 22.0306 8.77318 21.786C8.51429 21.5894 8.39891 21.2991 8.48389 21.0441C8.55629 20.827 8.75375 20.6965 9.01203 20.695C9.50072 20.6922 9.93806 21.0566 10.3234 21.6426C10.4293 21.5931 10.536 21.5314 10.6423 21.4558C10.9079 21.2668 11.1102 21.0767 11.2617 20.8918C10.9264 20.6022 10.6807 20.2549 10.6256 19.9232C10.532 19.3598 10.7643 19.0668 11.0129 18.9805C11.2964 18.8822 11.609 19.0259 11.7732 19.3301C11.9383 19.6361 12.0146 20.2117 11.598 20.8437C11.9933 21.131 12.4799 21.3325 12.8846 21.3241C13.2734 21.316 13.7047 21.1287 14.0543 20.8599C13.6521 20.3091 13.6168 19.7507 13.8162 19.3491C13.9706 19.0382 14.2784 18.8817 14.5649 18.9682C14.8158 19.0441 15.0576 19.3273 14.9821 19.8942C14.9362 20.2385 14.7081 20.5953 14.3899 20.8905C14.5444 21.0626 14.7467 21.2374 15.0083 21.4085C15.1037 21.4713 15.2044 21.5259 15.3091 21.5717C15.6887 20.9975 16.12 20.6345 16.602 20.6173C16.8629 20.608 17.0728 20.7318 17.1501 20.9397C17.2379 21.1768 17.1346 21.4599 16.8867 21.661C16.5635 21.9233 16.0055 22.0597 15.4039 21.8674C14.252 23.7987 13.5373 27.9705 13.4997 29.5454C13.4985 29.5774 13.4848 29.6076 13.4615 29.6297C13.4382 29.6517 13.4073 29.6637 13.3754 29.6631C13.3434 29.6625 13.3131 29.6493 13.2909 29.6264C13.2687 29.6035 13.2564 29.5727 13.2568 29.5408C13.2893 28.1832 13.9402 23.8738 15.1788 21.7804C15.0777 21.7345 14.9761 21.6787 14.8747 21.6124C14.5999 21.432 14.3784 21.2412 14.2056 21.0469C13.8147 21.35 13.3323 21.5583 12.8886 21.5676C12.423 21.5772 11.8866 21.3607 11.4518 21.0428C11.2863 21.2454 11.0675 21.4515 10.7826 21.6542C10.6782 21.7288 10.5677 21.7944 10.4522 21.8503C11.6782 23.9327 12.3419 28.2259 12.4176 29.5788C12.4189 29.6021 12.4134 29.6253 12.4019 29.6457C12.3903 29.666 12.3732 29.6826 12.3525 29.6935C12.3319 29.7044 12.3085 29.7091 12.2853 29.7071C12.2621 29.7051 12.24 29.6965 12.2216 29.6822ZM9.59745 21.1621C9.41042 21.0167 9.2153 20.9373 9.01232 20.9384C8.8612 20.9393 8.75259 21.0055 8.71429 21.1202C8.67289 21.2442 8.71776 21.4346 8.90958 21.5836L8.91942 21.5911C9.18135 21.7878 9.62044 21.8796 10.0994 21.7297C9.93977 21.4912 9.77232 21.298 9.59745 21.1621ZM11.4185 19.2768C11.3193 19.1996 11.2006 19.1727 11.0917 19.2104C10.9372 19.2641 10.7966 19.4687 10.8654 19.8823C10.9101 20.1516 11.1204 20.4427 11.4075 20.6924C11.7491 20.1625 11.6935 19.6953 11.5592 19.4467C11.5246 19.3808 11.4767 19.323 11.4185 19.2768ZM14.5869 19.2497C14.5573 19.2267 14.5256 19.2107 14.4936 19.201C14.3232 19.1494 14.134 19.2545 14.0337 19.4565C13.9072 19.7111 13.8681 20.1844 14.2391 20.703C14.5096 20.4492 14.7032 20.1486 14.7412 19.863C14.7853 19.5324 14.7015 19.3388 14.5869 19.2497ZM16.8479 20.9237C16.7907 20.8792 16.7088 20.8569 16.6098 20.8604C16.2239 20.8741 15.8653 21.1722 15.5393 21.654C16.0307 21.7925 16.4753 21.6824 16.7343 21.4723C16.8995 21.3382 16.9732 21.1627 16.9223 21.0251C16.9075 20.9849 16.8818 20.9498 16.8479 20.9237Z" fill="#112C41"/>
<path d="M15.4538 31.2647C15.5815 31.085 15.6543 30.888 15.6606 30.6804C15.6678 30.4419 15.6045 30.2385 15.452 30.0302C15.0232 30.6301 13.966 31.0112 12.7652 30.9805C11.6156 30.9513 10.6382 30.5293 10.2129 29.9486C10.0839 30.1291 10.01 30.3271 10.0037 30.536C9.97655 31.4393 11.2167 32.2488 12.7779 32.3122C14.0302 32.3631 15.0265 31.8664 15.4538 31.2647Z" fill="#CBC8FF"/>
<path d="M13.0538 32.3147C12.9636 32.3167 12.8708 32.3161 12.778 32.3122C11.2171 32.2494 9.97675 31.4393 10.0039 30.5357C10.0099 30.3266 10.084 30.1295 10.2132 29.949C10.4164 30.2269 10.7466 30.4687 11.1639 30.6475C11.1524 30.7147 11.1487 30.7827 11.1527 30.8515C11.1917 31.5469 11.9799 32.1218 13.0538 32.3147Z" fill="#B2B0F7"/>
<path d="M10.5378 31.7044C10.1167 31.3773 9.86914 30.9672 9.88232 30.5319C9.88941 30.3028 9.96739 30.0825 10.1142 29.8769C10.1254 29.8612 10.1401 29.8483 10.1572 29.8394C10.1742 29.8305 10.1932 29.8257 10.2124 29.8255C10.2316 29.8254 10.2506 29.8298 10.2677 29.8384C10.2849 29.847 10.2997 29.8596 10.311 29.8752C10.7281 30.4447 11.6927 30.8304 12.7688 30.8578C13.9094 30.8868 14.948 30.5255 15.3532 29.9584C15.3644 29.9427 15.3791 29.9299 15.3962 29.9209C15.4132 29.912 15.4322 29.9072 15.4514 29.9071C15.4706 29.9069 15.4896 29.9113 15.5067 29.9199C15.5239 29.9286 15.5387 29.9412 15.55 29.9567C15.7162 30.1839 15.79 30.4144 15.782 30.6822C15.775 30.91 15.6979 31.1291 15.5526 31.3337C15.0445 32.0492 13.9532 32.4804 12.7725 32.4325C11.869 32.3959 11.0666 32.1153 10.5378 31.7044ZM10.2268 30.1563C10.1647 30.2744 10.1299 30.4049 10.1253 30.5381C10.1 31.3736 11.3173 32.1301 12.7836 32.1895C14.0351 32.2403 14.9767 31.7258 15.3549 31.1933C15.4717 31.0288 15.5338 30.8548 15.5392 30.6761C15.5441 30.5152 15.5129 30.3749 15.4396 30.2367C14.9315 30.795 13.9075 31.1303 12.7615 31.101C11.6986 31.0739 10.7293 30.708 10.2268 30.1563Z" fill="#112C41"/>
<path d="M15.638 29.9759C15.7736 29.7849 15.8511 29.5756 15.8578 29.3549C15.8654 29.1014 15.7982 28.8853 15.6361 28.664C15.098 29.2939 14.0569 29.7064 12.7808 29.6738C11.5591 29.6427 10.5939 29.2094 10.0685 28.5771C9.93134 28.769 9.85309 28.9794 9.84634 29.2013C9.81743 30.1611 11.1668 31.0165 12.8268 31.0589C14.105 31.0917 15.1838 30.6154 15.638 29.9759Z" fill="#CBC8FF"/>
<path d="M12.0282 30.9726C10.7555 30.7298 9.82173 30.0018 9.84617 29.2015C9.853 28.9794 9.93122 28.7695 10.0689 28.5767C10.2832 28.8347 10.5711 29.0607 10.9206 29.2378C10.8312 29.4471 10.802 29.6608 10.8389 29.8727C10.9269 30.3688 11.3804 30.7571 12.0282 30.9726Z" fill="#B2B0F7"/>
<path d="M10.4014 30.4111C9.94985 30.0602 9.71161 29.6364 9.72484 29.1972C9.73218 28.9554 9.81446 28.7228 9.96981 28.5055C9.98064 28.4904 9.99478 28.4779 10.0111 28.4691C10.0275 28.4602 10.0457 28.4552 10.0642 28.4545C10.0828 28.4537 10.1012 28.4573 10.1182 28.4648C10.1351 28.4723 10.1501 28.4836 10.1619 28.4979C10.6944 29.1381 11.65 29.5221 12.7845 29.5509C13.9692 29.5812 15.0008 29.2196 15.5439 28.5838C15.5558 28.5698 15.5707 28.5587 15.5875 28.5513C15.6043 28.5439 15.6225 28.5403 15.6408 28.541C15.6591 28.5416 15.677 28.5464 15.6932 28.555C15.7094 28.5635 15.7234 28.5757 15.7341 28.5905C15.9097 28.8304 15.9878 29.0739 15.9792 29.3566C15.9719 29.5971 15.8903 29.8287 15.7368 30.0448C15.2245 30.7661 14.081 31.2114 12.8232 31.1793C12.0016 31.1583 11.2257 30.9442 10.6384 30.5762C10.5566 30.5252 10.4775 30.4701 10.4014 30.4111ZM10.0851 28.7777C10.0114 28.9152 9.97205 29.0578 9.96768 29.2034C9.9552 29.6183 10.2468 30.0434 10.768 30.3699C11.3191 30.7152 12.0516 30.9164 12.8305 30.9362C13.9913 30.9659 15.0797 30.5514 15.5391 29.9046C15.6642 29.7284 15.7306 29.5422 15.7363 29.3506C15.7417 29.1705 15.705 29.0145 15.6189 28.8603C15.0074 29.4776 13.9605 29.8245 12.7771 29.7943C11.6462 29.7655 10.6765 29.3972 10.0851 28.7777Z" fill="#112C41"/>
</g>
<g clip-path="url(#clip1_260_35559)">
<path d="M7.11415 12.421L4.044 8.9145C4.02376 8.89136 3.99563 8.87668 3.96523 8.87339C3.93484 8.8701 3.90443 8.87844 3.88009 8.89674L1.72386 10.5155C1.70638 10.5286 1.69282 10.5462 1.68461 10.5666C1.6764 10.5869 1.67386 10.6091 1.67725 10.6309C1.68064 10.6526 1.68984 10.6731 1.70387 10.6901C1.7179 10.7072 1.73623 10.7201 1.75692 10.7275L6.98337 12.6153C7.10129 12.6579 7.19708 12.5156 7.11415 12.421Z" fill="#FFE993"/>
<path d="M7.14318 12.6849C7.11518 12.7032 7.08323 12.7147 7.04988 12.7184C7.01654 12.7221 6.98273 12.7179 6.95115 12.7061L1.72473 10.8183C1.68749 10.8049 1.65447 10.7817 1.62921 10.751C1.60395 10.7204 1.58738 10.6835 1.58128 10.6443C1.57518 10.6051 1.57977 10.5651 1.59456 10.5286C1.60935 10.492 1.63378 10.4602 1.66526 10.4366L3.82152 8.81775C3.91117 8.74932 4.04138 8.76402 4.11642 8.8498L7.18653 12.3564C7.21899 12.3928 7.23841 12.439 7.24164 12.4875C7.24487 12.536 7.23173 12.5841 7.20435 12.624C7.1882 12.6481 7.16741 12.6688 7.14318 12.6849ZM3.93982 8.97318L3.93861 8.97398L1.78236 10.5928C1.77874 10.5954 1.77594 10.5989 1.77429 10.603C1.77264 10.6071 1.77222 10.6116 1.77306 10.616C1.7736 10.6204 1.77538 10.6246 1.77821 10.628C1.78104 10.6314 1.78478 10.634 1.789 10.6353L7.01537 12.5231C7.01975 12.5246 7.03308 12.5294 7.04356 12.5139C7.05405 12.4983 7.04466 12.4876 7.04157 12.4841L3.97151 8.97757C3.96759 8.97316 3.96224 8.9703 3.95642 8.96949C3.95061 8.96869 3.94472 8.97 3.93982 8.97318Z" fill="#112C41"/>
<path d="M11.2584 10.2776L9.48721 4.74427C9.48224 4.72873 9.48171 4.71215 9.48568 4.6964C9.48966 4.68066 9.49798 4.6664 9.50969 4.65525C9.5214 4.6441 9.53603 4.63651 9.55191 4.63335C9.56778 4.63019 9.58426 4.63159 9.59946 4.63739L12.2791 5.65916C12.2984 5.6665 12.3145 5.6805 12.3245 5.69862C12.3345 5.71675 12.3378 5.73782 12.3337 5.75803L11.4252 10.2698C11.4076 10.3571 11.2856 10.3629 11.2584 10.2776Z" fill="#FFE993"/>
<path d="M11.4427 10.4054C11.4163 10.4229 11.3849 10.4333 11.3508 10.4348C11.3103 10.4372 11.27 10.4257 11.2365 10.4024C11.203 10.379 11.1782 10.3451 11.1661 10.306L9.39481 4.77259C9.38411 4.73963 9.38292 4.70438 9.39137 4.67093C9.39982 4.63749 9.41757 4.60722 9.44255 4.58363C9.46726 4.55976 9.49831 4.54352 9.53205 4.53683C9.56578 4.53013 9.60081 4.53327 9.633 4.54587L12.3126 5.56764C12.3537 5.58307 12.388 5.61278 12.4093 5.65132C12.4305 5.68986 12.4374 5.73468 12.4285 5.77759L11.5202 10.2892C11.5156 10.3128 11.5064 10.3353 11.4931 10.3552C11.4798 10.3751 11.4627 10.3922 11.4427 10.4054ZM9.58608 4.73556L11.3381 10.2091L12.2367 5.74636L9.58608 4.73556Z" fill="#112C41"/>
<path d="M17.285 6.13632L16.3814 10.1376C16.3614 10.2265 16.4725 10.2848 16.533 10.2172L20.2202 6.09541C20.2721 6.03728 20.228 5.9444 20.1499 5.94775L17.3664 6.06819C17.3473 6.06903 17.3289 6.07614 17.3142 6.08844C17.2995 6.10074 17.2893 6.11755 17.285 6.13632Z" fill="#FFE993"/>
<path d="M16.5687 10.3133C16.5414 10.3312 16.5098 10.3414 16.4771 10.3428C16.4444 10.3442 16.4119 10.3367 16.3829 10.3212C16.3461 10.3023 16.3167 10.2716 16.2993 10.2341C16.2819 10.1965 16.2776 10.1543 16.287 10.1142L17.1907 6.11283L17.1907 6.11297C17.1996 6.0736 17.2212 6.03834 17.252 6.01253C17.2828 5.98673 17.3212 5.97176 17.3615 5.96991L20.145 5.84941C20.1815 5.84777 20.2177 5.85703 20.2491 5.87602C20.2805 5.895 20.3056 5.92286 20.3214 5.95606C20.3372 5.98918 20.343 6.0262 20.3379 6.06243C20.3328 6.09865 20.3171 6.13245 20.2927 6.15953L16.6056 10.2813C16.5948 10.2936 16.5824 10.3043 16.5687 10.3133ZM17.3783 6.16409L16.4838 10.1251L20.1337 6.04475L17.3783 6.16409ZM17.3799 6.15741C17.3798 6.15747 17.3798 6.15747 17.3799 6.15741V6.15741Z" fill="#112C41"/>
</g>
<defs>
<clipPath id="clip0_260_35559">
<rect width="16.7106" height="19.2383" fill="white" transform="translate(11.8058 9.24023) rotate(37.8545)"/>
</clipPath>
<clipPath id="clip1_260_35559">
<rect width="18.2553" height="8.70639" fill="white" transform="translate(1.15381 10.0312) rotate(-33.3313)"/>
</clipPath>
</defs>
</svg>
